<?xml version="1.0" encoding="utf-8"?>
<!-- Generator: Adobe Illustrator 19.2.1, SVG Export Plug-In . SVG Version: 6.00 Build 0)  -->
<svg version="1.1" id="Layer_1" xmlns="http://www.w3.org/2000/svg" xmlns:xlink="http://www.w3.org/1999/xlink" x="0px" y="0px"
	 viewBox="0 0 1200 800" style="enable-background:new 0 0 1200 800;" xml:space="preserve">
<style type="text/css">
	.st0{fill:#F9F9F9;}
	.st1{fill:#D30909;}
	.st2{fill:none;stroke:#333333;stroke-miterlimit:10;}
	.st3{font-family:'FranklinGothic-Book';}
	.st4{font-size:26px;}
</style>
<circle class="st0" cx="410.5" cy="428.6" r="13.4"/>
<circle class="st0" cx="486.1" cy="418.3" r="13.4"/>
<circle class="st0" cx="382.3" cy="423" r="13.4"/>
<circle class="st0" cx="439.4" cy="358" r="13.4"/>
<circle class="st1" cx="476.8" cy="391" r="13.4"/>
<circle class="st0" cx="363.3" cy="444.6" r="13.4"/>
<circle class="st0" cx="392.1" cy="374" r="13.4"/>
<circle class="st0" cx="476.2" cy="467.3" r="13.4"/>
<circle class="st0" cx="429" cy="483.3" r="13.4"/>
<circle class="st0" cx="495.3" cy="445.6" r="13.4"/>
<circle class="st0" cx="400.7" cy="477.6" r="13.4"/>
<circle class="st0" cx="438.8" cy="434.3" r="13.4"/>
<circle class="st0" cx="467" cy="439.9" r="13.4"/>
<circle class="st0" cx="457.8" cy="412.6" r="13.4"/>
<circle class="st0" cx="429.6" cy="407" r="13.4"/>
<circle class="st0" cx="420.3" cy="379.7" r="13.4"/>
<circle class="st0" cx="448.6" cy="385.3" r="13.4"/>
<circle class="st0" cx="372.5" cy="471.9" r="13.4"/>
<circle class="st0" cx="411.1" cy="352.4" r="13.4"/>
<circle class="st0" cx="401.3" cy="401.3" r="13.4"/>
<circle class="st0" cx="373.1" cy="395.7" r="13.4"/>
<circle class="st0" cx="391.5" cy="450.3" r="13.4"/>
<circle class="st0" cx="448" cy="461.6" r="13.4"/>
<circle class="st0" cx="419.7" cy="455.9" r="13.4"/>
<circle class="st0" cx="354" cy="417.3" r="13.4"/>
<path class="st2" d="M491.7,378.1c0,0,1.4-69.2,101.7-74.8"/>
<text transform="matrix(1 0 0 1 607.7665 303.331)"><tspan x="0" y="0" class="st3 st4">Meanwhile, every 1 out of 25 gay men</tspan><tspan x="0" y="31.2" class="st3 st4">in China is living with HIV.</tspan></text>
</svg>
